<svg width="18" height="18" viewBox="0 0 18 18" xmlns="http://www.w3.org/2000/svg">
<g id="Group 33785">
<g id="Group 285">
<path id="Vector" d="M15.997 17.1018H2.00457C1.39498 17.1018 0.899902 16.6067 0.899902 15.9971V2.00469C0.899902 1.3951 1.39498 0.900024 2.00457 0.900024H15.9952C16.6048 0.900024 17.0999 1.3951 17.0999 2.00469V15.9954C17.1017 16.6049 16.6048 17.1018 15.997 17.1018ZM2.00457 1.63647C1.80196 1.63647 1.63635 1.80208 1.63635 2.00469V15.9954C1.63635 16.198 1.80196 16.3636 2.00457 16.3636H15.9952C16.1978 16.3636 16.3635 16.198 16.3635 15.9954V2.00469C16.3635 1.80208 16.1978 1.63647 15.9952 1.63647H2.00457Z"/>
<path id="Vector_2" d="M7.34469 8.75454C7.2337 8.75454 7.12799 8.70521 7.05575 8.61536L4.76714 5.7242V8.38632C4.76714 8.58893 4.60153 8.75454 4.39892 8.75454C4.19631 8.75454 4.03069 8.58893 4.03069 8.38632V4.66534C4.03069 4.50854 4.12936 4.36935 4.27735 4.31826C4.42534 4.26541 4.58919 4.31474 4.68786 4.43807L6.97647 7.32746V4.66534C6.97647 4.46273 7.14208 4.29712 7.34469 4.29712C7.5473 4.29712 7.71291 4.46273 7.71291 4.66534V8.38632C7.71291 8.54312 7.61425 8.68231 7.46626 8.7334C7.42573 8.74749 7.38521 8.75454 7.34469 8.75454V8.75454ZM11.0251 8.73516C9.80772 8.73516 8.81582 7.74501 8.81582 6.52583C8.81582 5.30665 9.80596 4.3165 11.0251 4.3165C12.2443 4.3165 13.2345 5.30665 13.2345 6.52583C13.2345 7.74501 12.2443 8.73516 11.0251 8.73516ZM11.0251 5.05294C10.2129 5.05294 9.55226 5.71363 9.55226 6.52583C9.55226 7.33803 10.2129 7.99872 11.0251 7.99872C11.8373 7.99872 12.498 7.33803 12.498 6.52583C12.498 5.71363 11.8373 5.05294 11.0251 5.05294ZM13.7877 14.2479H4.21393C4.01131 14.2479 3.8457 14.0841 3.8457 13.8797C3.8457 13.6753 4.01131 13.5115 4.21393 13.5115H13.7859C13.9903 13.5115 14.1541 13.6753 14.1541 13.8797C14.1541 14.0841 13.9903 14.2479 13.7877 14.2479V14.2479Z"/>
<path id="Vector_3" d="M13.4197 8.54132C13.4197 8.63898 13.4585 8.73263 13.5275 8.80169C13.5966 8.87074 13.6902 8.90954 13.7879 8.90954C13.8856 8.90954 13.9792 8.87074 14.0483 8.80169C14.1173 8.73263 14.1561 8.63898 14.1561 8.54132C14.1561 8.44366 14.1173 8.35 14.0483 8.28095C13.9792 8.21189 13.8856 8.1731 13.7879 8.1731C13.6902 8.1731 13.5966 8.21189 13.5275 8.28095C13.4585 8.35 13.4197 8.44366 13.4197 8.54132V8.54132Z"/>
</g>
</g>
</svg>
